<svg xmlns="http://www.w3.org/2000/svg" width="720" height="460" viewBox="0 0 720 460" fill="none">
  <defs>
    <linearGradient id="bg" x1="40" y1="20" x2="700" y2="460" gradientUnits="userSpaceOnUse">
      <stop stop-color="#1F8A82"/>
      <stop offset="1" stop-color="#155E75"/>
    </linearGradient>
    <linearGradient id="paper" x1="180" y1="80" x2="560" y2="380" gradientUnits="userSpaceOnUse">
      <stop stop-color="#ffffff"/>
      <stop offset="1" stop-color="#e8f3f2"/>
    </linearGradient>
  </defs>
  <rect width="720" height="460" rx="28" fill="url(#bg)"/>
  <circle cx="620" cy="92" r="58" fill="#FDE68A" fill-opacity=".35"/>
  <circle cx="112" cy="388" r="88" fill="#99F6E4" fill-opacity=".25"/>
  <rect x="182" y="74" width="368" height="298" rx="16" fill="url(#paper)"/>
  <rect x="203" y="97" width="8" height="252" rx="4" fill="#0F766E" fill-opacity=".45"/>
  <rect x="236" y="128" width="272" height="12" rx="6" fill="#0F766E" fill-opacity=".18"/>
  <rect x="236" y="164" width="230" height="12" rx="6" fill="#0F766E" fill-opacity=".18"/>
  <rect x="236" y="200" width="248" height="12" rx="6" fill="#0F766E" fill-opacity=".18"/>
  <rect x="236" y="236" width="208" height="12" rx="6" fill="#0F766E" fill-opacity=".18"/>
  <rect x="236" y="272" width="170" height="12" rx="6" fill="#0F766E" fill-opacity=".18"/>
  <g transform="translate(500 268) rotate(18)">
    <rect x="0" y="0" width="124" height="18" rx="9" fill="#F59E0B"/>
    <rect x="96" y="0" width="28" height="18" rx="9" fill="#FDE68A"/>
  </g>
</svg>
